<svg width="300" height="376" viewBox="0 0 300 376" fill="none" xmlns="http://www.w3.org/2000/svg">
<path d="M71.4591 9.59388C72.8882 9.58953 74.3173 9.58435 75.7463 9.57842C79.5952 9.56516 83.4439 9.56447 87.2928 9.56701C90.515 9.56808 93.7372 9.56319 96.9595 9.55842C104.561 9.54738 112.162 9.54689 119.763 9.55294C127.592 9.55898 135.42 9.54665 143.249 9.52543C149.989 9.50784 156.729 9.50186 163.469 9.50511C167.487 9.50691 171.504 9.50432 175.522 9.49042C179.296 9.47785 183.07 9.47982 186.845 9.49283C188.226 9.49518 189.608 9.49248 190.989 9.48422C205.291 9.40495 205.291 9.40495 211.659 14.2662C212.114 14.7432 212.568 15.2202 213.036 15.7117C213.557 16.2514 214.079 16.7911 214.617 17.3471C215.136 17.9048 215.655 18.4625 216.19 19.0371C216.709 19.5755 217.228 20.1139 217.763 20.6686C220.519 23.553 223.149 26.5175 225.718 29.5746C230.682 35.4034 236.169 40.7224 241.584 46.1118C242.973 47.4966 244.356 48.8878 245.739 50.2792C246.558 51.096 247.376 51.9127 248.22 52.7542C250 54.778 250 54.778 250 56.774C250.647 56.774 251.294 56.774 251.96 56.774C251.96 57.4327 251.96 58.0914 251.96 58.77C252.607 58.77 253.254 58.77 253.92 58.77C253.92 59.4287 253.92 60.0874 253.92 60.766C254.567 60.766 255.214 60.766 255.88 60.766C257.103 62.0366 257.103 62.0366 258.598 63.912C261.899 67.8667 265.403 71.5344 269.026 75.1785C269.595 75.7528 270.165 76.3271 270.751 76.9188C273.131 79.3151 275.514 81.7073 277.902 84.095C279.664 85.8588 281.42 87.629 283.175 89.4C283.707 89.9283 284.238 90.4566 284.787 91.001C290.82 97.1048 295.174 102.481 295.22 111.487C295.219 112.285 295.219 113.083 295.218 113.905C295.222 115.179 295.222 115.179 295.226 116.479C295.235 119.335 295.236 122.192 295.238 125.049C295.242 127.093 295.247 129.137 295.253 131.181C295.266 136.745 295.272 142.309 295.276 147.873C295.279 151.351 295.283 154.829 295.287 158.307C295.301 169.195 295.31 180.083 295.314 190.972C295.319 203.528 295.336 216.085 295.364 228.641C295.385 238.352 295.395 248.062 295.396 257.773C295.398 263.57 295.403 269.366 295.421 275.162C295.437 280.623 295.439 286.083 295.43 291.544C295.43 293.54 295.434 295.537 295.444 297.533C295.532 316.892 293.405 333.399 279.607 348.011C278.892 348.729 278.177 349.446 277.44 350.186C276.61 351.047 276.61 351.047 275.763 351.925C264.976 362.267 250.558 365.322 236.225 365.289C235.093 365.293 235.093 365.293 233.938 365.296C231.43 365.303 228.922 365.302 226.414 365.301C224.607 365.304 222.8 365.307 220.993 365.311C216.099 365.32 211.205 365.322 206.311 365.323C203.249 365.324 200.187 365.326 197.125 365.328C186.43 365.338 175.735 365.342 165.04 365.341C155.091 365.34 145.142 365.351 135.193 365.367C126.635 365.38 118.076 365.385 109.518 365.384C104.414 365.384 99.3098 365.387 94.2058 365.398C89.4019 365.407 84.5982 365.407 79.7944 365.4C78.0389 365.399 76.2833 365.401 74.5278 365.407C56.5113 365.466 40.579 363.945 26.56 351.184C25.9461 350.64 25.3321 350.096 24.6995 349.535C14.3713 339.775 9.36793 326.033 8.82907 311.867C8.7914 309.148 8.78467 306.43 8.78897 303.71C8.78675 302.672 8.78453 301.634 8.78224 300.564C8.77605 297.097 8.77684 293.631 8.77765 290.164C8.77471 287.674 8.77138 285.183 8.76767 282.693C8.75992 276.637 8.75684 270.581 8.75629 264.525C8.75583 259.6 8.75381 254.675 8.7507 249.75C8.74208 235.77 8.73755 221.79 8.73829 207.81C8.73833 207.057 8.73837 206.304 8.73841 205.529C8.73845 204.775 8.73849 204.021 8.73853 203.245C8.73893 191.033 8.72955 178.821 8.71573 166.609C8.70164 154.054 8.69489 141.498 8.69574 128.942C8.69606 121.9 8.69339 114.858 8.68282 107.815C8.67294 101.191 8.67327 94.5662 8.68039 87.9417C8.68141 85.5146 8.67911 83.0875 8.67317 80.6605C8.66558 77.3388 8.67018 74.0175 8.67771 70.6958C8.67267 69.7431 8.66763 68.7903 8.66244 67.8086C8.74668 50.9223 13.8042 37.2694 24.9675 24.7756C29.0451 20.7609 33.2469 17.9633 38.2588 15.357C38.8776 15.0314 39.4965 14.7059 40.1341 14.3704C50.0426 9.56303 60.6887 9.572 71.4591 9.59388Z" fill="#FCFDFD"/>
<path d="M71.4591 9.59388C72.8882 9.58953 74.3173 9.58435 75.7463 9.57842C79.5952 9.56516 83.4439 9.56447 87.2928 9.56701C90.515 9.56808 93.7372 9.56319 96.9595 9.55842C104.561 9.54738 112.162 9.54689 119.763 9.55294C127.592 9.55898 135.42 9.54665 143.249 9.52543C149.989 9.50784 156.729 9.50186 163.469 9.50511C167.487 9.50691 171.504 9.50432 175.522 9.49042C179.296 9.47785 183.07 9.47982 186.845 9.49283C188.226 9.49518 189.608 9.49248 190.989 9.48422C205.291 9.40495 205.291 9.40495 211.659 14.2662C212.114 14.7432 212.568 15.2202 213.036 15.7117C213.557 16.2514 214.079 16.7911 214.617 17.3471C215.136 17.9048 215.655 18.4625 216.19 19.0371C216.709 19.5755 217.228 20.1139 217.763 20.6686C220.519 23.553 223.149 26.5175 225.718 29.5746C230.682 35.4034 236.169 40.7224 241.584 46.1118C242.973 47.4966 244.356 48.8878 245.739 50.2792C246.558 51.096 247.376 51.9127 248.22 52.7542C250 54.778 250 54.778 250 56.774C250.647 56.774 251.294 56.774 251.96 56.774C251.96 57.4327 251.96 58.0914 251.96 58.77C252.607 58.77 253.254 58.77 253.92 58.77C253.92 59.4287 253.92 60.0874 253.92 60.766C254.567 60.766 255.214 60.766 255.88 60.766C257.103 62.0366 257.103 62.0366 258.598 63.912C261.899 67.8667 265.403 71.5344 269.026 75.1785C269.595 75.7528 270.165 76.3271 270.751 76.9188C273.131 79.3151 275.514 81.7073 277.902 84.095C279.664 85.8588 281.42 87.629 283.175 89.4C283.707 89.9283 284.238 90.4566 284.787 91.001C290.82 97.1048 295.174 102.481 295.22 111.487C295.219 112.285 295.219 113.083 295.218 113.905C295.222 115.179 295.222 115.179 295.226 116.479C295.235 119.335 295.236 122.192 295.238 125.049C295.242 127.093 295.247 129.137 295.253 131.181C295.266 136.745 295.272 142.309 295.276 147.873C295.279 151.351 295.283 154.829 295.287 158.307C295.301 169.195 295.31 180.083 295.314 190.972C295.319 203.528 295.336 216.085 295.364 228.641C295.385 238.352 295.395 248.062 295.396 257.773C295.398 263.57 295.403 269.366 295.421 275.162C295.437 280.623 295.439 286.083 295.43 291.544C295.43 293.54 295.434 295.537 295.444 297.533C295.532 316.892 293.405 333.399 279.607 348.011C278.892 348.729 278.177 349.446 277.44 350.186C276.61 351.047 276.61 351.047 275.763 351.925C264.976 362.267 250.558 365.322 236.225 365.289C235.093 365.293 235.093 365.293 233.938 365.296C231.43 365.303 228.922 365.302 226.414 365.301C224.607 365.304 222.8 365.307 220.993 365.311C216.099 365.32 211.205 365.322 206.311 365.323C203.249 365.324 200.187 365.326 197.125 365.328C186.43 365.338 175.735 365.342 165.04 365.341C155.091 365.34 145.142 365.351 135.193 365.367C126.635 365.38 118.076 365.385 109.518 365.384C104.414 365.384 99.3098 365.387 94.2058 365.398C89.4019 365.407 84.5982 365.407 79.7944 365.4C78.0389 365.399 76.2833 365.401 74.5278 365.407C56.5113 365.466 40.579 363.945 26.56 351.184C25.9461 350.64 25.3321 350.096 24.6995 349.535C14.3713 339.775 9.36793 326.033 8.82907 311.867C8.7914 309.148 8.78467 306.43 8.78897 303.71C8.78675 302.672 8.78453 301.634 8.78224 300.564C8.77605 297.097 8.77684 293.631 8.77765 290.164C8.77471 287.674 8.77138 285.183 8.76767 282.693C8.75992 276.637 8.75684 270.581 8.75629 264.525C8.75583 259.6 8.75381 254.675 8.7507 249.75C8.74208 235.77 8.73755 221.79 8.73829 207.81C8.73833 207.057 8.73837 206.304 8.73841 205.529C8.73845 204.775 8.73849 204.021 8.73853 203.245C8.73893 191.033 8.72955 178.821 8.71573 166.609C8.70164 154.054 8.69489 141.498 8.69574 128.942C8.69606 121.9 8.69339 114.858 8.68282 107.815C8.67294 101.191 8.67327 94.5662 8.68039 87.9417C8.68141 85.5146 8.67911 83.0875 8.67317 80.6605C8.66558 77.3388 8.67018 74.0175 8.67771 70.6958C8.67267 69.7431 8.66763 68.7903 8.66244 67.8086C8.74668 50.9223 13.8042 37.2694 24.9675 24.7756C29.0451 20.7609 33.2469 17.9633 38.2588 15.357C38.8776 15.0314 39.4965 14.7059 40.1341 14.3704C50.0426 9.56303 60.6887 9.572 71.4591 9.59388ZM35.38 44.798C33.6598 47.3641 32.4391 49.845 31.46 52.782C30.961 54.2536 30.961 54.2536 30.4519 55.7549C29.1279 60.5411 29.2255 65.2615 29.2445 70.2024C29.2408 71.2405 29.237 72.2787 29.2332 73.3483C29.2231 76.8203 29.2269 80.2921 29.2308 83.7641C29.2266 86.2562 29.2215 88.7483 29.2157 91.2404C29.2039 97.3033 29.2014 103.366 29.2037 109.429C29.2055 114.359 29.2037 119.29 29.1996 124.22C29.199 124.922 29.1984 125.625 29.1978 126.349C29.1966 127.776 29.1954 129.203 29.1942 130.63C29.1836 144.008 29.1857 157.385 29.1917 170.763C29.1967 182.989 29.1857 195.214 29.1671 207.44C29.1481 220.006 29.14 232.571 29.1437 245.137C29.1455 252.187 29.1431 259.236 29.1293 266.286C29.1163 272.917 29.1188 279.548 29.1316 286.179C29.1339 288.61 29.1313 291.04 29.1232 293.471C29.1129 296.795 29.1209 300.119 29.1333 303.443C29.126 304.4 29.1188 305.356 29.1114 306.342C29.1911 316.525 31.7809 325.4 38.32 333.22C48.9745 343.743 60.3858 343.638 74.3637 343.587C76.2334 343.591 78.1032 343.597 79.9729 343.603C85.0328 343.617 90.0926 343.612 95.1525 343.602C100.457 343.595 105.762 343.602 111.067 343.606C119.974 343.612 128.881 343.605 137.788 343.59C148.073 343.574 158.359 343.579 168.645 343.596C177.489 343.609 186.333 343.611 195.177 343.603C200.453 343.599 205.73 343.598 211.006 343.608C215.968 343.617 220.929 343.611 225.89 343.593C227.707 343.589 229.524 343.591 231.341 343.597C244.95 343.642 255.255 342.7 265.378 332.557C272.509 324.585 274.644 316.794 274.651 306.145C274.655 305.333 274.659 304.52 274.664 303.683C274.677 300.963 274.683 298.244 274.689 295.524C274.697 293.573 274.705 291.622 274.713 289.671C274.739 283.27 274.754 276.868 274.768 270.467C274.773 268.263 274.779 266.06 274.784 263.856C274.805 254.695 274.823 245.533 274.834 236.372C274.85 223.236 274.883 210.1 274.939 196.964C274.977 187.729 274.996 178.494 275.001 169.259C275.004 163.741 275.016 158.224 275.048 152.706C275.077 147.52 275.084 142.334 275.072 137.148C275.072 135.242 275.08 133.337 275.097 131.432C275.119 128.835 275.111 126.239 275.096 123.642C275.109 122.884 275.123 122.127 275.137 121.346C275.08 117.523 274.808 115.979 272.147 113.192C269.546 111.632 268.244 111.166 265.272 111.167C264.447 111.157 263.622 111.147 262.772 111.136C261.891 111.145 261.01 111.153 260.102 111.161C259.18 111.152 258.258 111.142 257.308 111.133C254.361 111.104 251.415 111.101 248.469 111.103C215.945 111.062 215.945 111.062 205.9 101.684C197.984 91.8537 196.96 82.3838 196.908 70.1066C196.885 68.0509 196.861 65.9951 196.837 63.9393C196.802 60.7175 196.774 57.4961 196.761 54.2741C196.745 51.1513 196.706 48.0296 196.663 44.9071C196.666 43.4569 196.666 43.4569 196.668 41.9774C196.652 41.0811 196.636 40.1847 196.619 39.2612C196.614 38.4734 196.608 37.6856 196.602 36.8739C196.259 34.688 196.259 34.688 194.46 33.2167C191.626 31.4858 189.859 31.4451 186.566 31.4371C185.42 31.4272 184.275 31.4173 183.094 31.4071C181.841 31.4116 180.587 31.4161 179.296 31.4207C177.96 31.4151 176.623 31.4081 175.287 31.4C171.658 31.3821 168.029 31.3833 164.401 31.389C161.367 31.392 158.333 31.386 155.298 31.3799C148.134 31.3659 140.969 31.3675 133.804 31.3788C126.43 31.3903 119.055 31.3763 111.68 31.3495C105.338 31.3273 98.9961 31.3208 92.654 31.3266C88.871 31.33 85.0882 31.3276 81.3052 31.3104C77.7416 31.2949 74.1786 31.299 70.615 31.3177C68.6976 31.3231 66.7801 31.3089 64.8627 31.294C52.267 31.4004 43.8494 35.2252 35.38 44.798Z" fill="#0FC789"/>
<path d="M72.8271 243.898C73.5281 243.892 74.2292 243.887 74.9515 243.881C77.2953 243.867 79.638 243.882 81.9817 243.897C83.6641 243.894 85.3465 243.888 87.0289 243.881C91.5948 243.867 96.1604 243.878 100.726 243.895C105.505 243.908 110.283 243.902 115.061 243.898C123.085 243.896 131.109 243.909 139.133 243.932C148.41 243.959 157.687 243.961 166.964 243.949C175.888 243.938 184.813 243.944 193.737 243.958C197.535 243.964 201.333 243.964 205.131 243.959C209.603 243.955 214.075 243.965 218.548 243.986C220.189 243.992 221.831 243.992 223.472 243.987C225.713 243.981 227.952 243.994 230.193 244.011C231.447 244.014 232.701 244.016 233.992 244.018C237.505 244.426 239.361 245.232 242.16 247.392C243.693 250.514 243.489 252.937 243.14 256.374C240.468 259.263 238.816 260.278 234.939 260.868C233.669 260.87 232.4 260.871 231.092 260.873C230.382 260.879 229.672 260.885 228.941 260.892C226.568 260.908 224.196 260.895 221.823 260.883C220.12 260.888 218.416 260.895 216.713 260.904C212.09 260.922 207.468 260.915 202.846 260.902C198.009 260.892 193.173 260.901 188.337 260.908C180.217 260.915 172.096 260.905 163.976 260.886C154.584 260.865 145.192 260.872 135.8 260.894C127.739 260.912 119.678 260.914 111.616 260.904C106.8 260.898 101.985 260.897 97.1688 260.91C92.6424 260.922 88.1165 260.914 83.5901 260.891C81.9277 260.885 80.2653 260.887 78.6029 260.896C76.336 260.906 74.0705 260.893 71.8036 260.873C70.5345 260.871 69.2653 260.87 67.9577 260.868C64.25 260.282 63.0977 259.379 60.86 256.374C60.3049 254.378 60.3049 254.378 60.3088 252.382C60.2873 251.723 60.2658 251.065 60.2437 250.386C62.0854 244.422 67.4865 243.899 72.8271 243.898Z" fill="#1C2D38"/>
<path d="M74.6987 281.805C76.2099 281.795 76.2099 281.795 77.7516 281.784C81.0843 281.767 84.4161 281.778 87.7488 281.792C90.0628 281.789 92.3768 281.785 94.6908 281.78C99.5416 281.774 104.392 281.783 109.243 281.802C115.465 281.824 121.686 281.811 127.908 281.787C132.687 281.773 137.465 281.777 142.244 281.788C144.538 281.79 146.833 281.787 149.127 281.778C152.332 281.768 155.536 281.783 158.741 281.805C159.692 281.797 160.644 281.789 161.623 281.781C168.014 281.863 168.014 281.863 171.209 284.132C173.234 287.355 173.105 289.56 172.58 293.3C170.75 295.66 169.326 296.953 166.7 298.29C165.37 298.388 164.036 298.425 162.702 298.43C161.866 298.436 161.029 298.442 160.167 298.447C159.247 298.449 158.327 298.45 157.379 298.451C156.412 298.456 155.444 298.461 154.448 298.466C151.237 298.48 148.026 298.487 144.815 298.493C142.588 298.498 140.361 298.504 138.135 298.51C133.461 298.52 128.787 298.526 124.114 298.53C118.123 298.535 112.132 298.559 106.14 298.588C101.539 298.606 96.938 298.611 92.3367 298.613C90.1279 298.616 87.9191 298.624 85.7104 298.637C82.6205 298.654 79.5311 298.652 76.4412 298.646C75.5272 298.655 74.6132 298.664 73.6715 298.674C68.9414 298.643 65.6503 298.495 61.84 295.296C60.325 292.21 60.5723 289.713 60.86 286.314C64.1925 280.945 69.0864 281.758 74.6987 281.805Z" fill="#1E2E3A"/>
<path d="M110.84 131.624C113.351 133.059 113.351 133.059 114.76 135.616C115.077 140.437 114.401 144.409 111.24 148.091C110.145 149.205 109.029 150.297 107.896 151.37C107.31 151.955 106.724 152.54 106.121 153.143C104.261 154.993 102.376 156.812 100.489 158.632C99.2167 159.888 97.9463 161.145 96.6779 162.404C93.5786 165.473 90.4563 168.515 87.32 171.544C88.8371 175.24 91.0522 177.571 93.8355 180.37C94.74 181.285 95.6445 182.199 96.5764 183.142C97.5333 184.1 98.4903 185.057 99.4475 186.015C100.397 186.972 101.347 187.93 102.296 188.888C104.047 190.654 105.801 192.419 107.557 194.18C108.317 194.944 109.077 195.707 109.86 196.494C110.595 197.211 111.331 197.928 112.088 198.667C114.038 200.763 114.314 201.636 114.27 204.478C114.103 207.321 113.789 208.455 112.31 210.965C109.57 212.639 107.424 213.113 104.231 213.045C99.4642 211.788 96.4136 207.499 93.2 203.917C91.712 202.312 90.2216 200.71 88.7288 199.11C88.005 198.328 87.2812 197.547 86.5355 196.742C83.3764 193.453 79.9901 190.477 76.54 187.512C67.3533 179.462 67.3533 179.462 66.25 173.977C66.314 170.26 67.1628 168.584 69.6188 165.872C70.2422 165.181 70.8656 164.49 71.5079 163.779C76.0353 158.986 80.6793 154.319 85.3332 149.654C89.5937 145.357 93.687 141.019 97.5239 136.324C101.632 131.821 104.923 130.564 110.84 131.624Z" fill="#202F3A"/>
<path d="M172.58 122.642C175.397 124.201 175.397 124.201 177.48 126.634C177.91 131.697 177.173 135.182 175.133 139.78C174.61 140.978 174.086 142.177 173.547 143.411C172.959 144.722 172.372 146.032 171.784 147.342C171.175 148.724 170.568 150.106 169.961 151.488C168.632 154.515 167.297 157.54 165.958 160.563C163.587 165.932 161.264 171.322 158.944 176.713C157.709 179.579 156.474 182.445 155.238 185.311C154.436 187.173 153.635 189.034 152.834 190.896C139.524 221.809 139.524 221.809 136.32 223.44C132.597 223.791 130.299 223.966 127.071 221.943C124.877 218.368 124.851 215.51 125.54 211.464C127.073 207.192 128.943 203.106 130.871 199.009C132.573 195.391 134.224 191.75 135.884 188.112C136.235 187.345 136.587 186.578 136.95 185.787C141.169 176.559 145.145 167.223 149.121 157.884C149.815 156.258 150.509 154.632 151.204 153.007C151.536 152.226 151.869 151.446 152.212 150.642C152.862 149.118 153.512 147.595 154.164 146.072C155.666 142.553 157.141 139.027 158.553 135.469C158.942 134.503 158.942 134.503 159.339 133.517C160.029 131.796 160.707 130.069 161.384 128.342C164.011 123.249 167.012 121.832 172.58 122.642Z" fill="#202F3A"/>
<path d="M196.406 137.363C205.462 140.489 212.261 149.956 218.885 156.761C219.855 157.754 220.824 158.746 221.794 159.738C223.571 161.555 225.346 163.374 227.12 165.194C228.594 166.705 230.098 168.185 231.639 169.623C233.34 171.544 233.34 171.544 234.014 175.287C233.603 183.37 224.303 189.763 218.824 194.872C213.346 200.032 207.99 205.262 202.784 210.708C200.515 212.939 199.431 213.407 196.284 213.834C193.16 213.46 193.16 213.46 190.342 211.339C188.26 208.47 188.26 208.47 187.525 205.663C189.408 197.512 198.695 190.735 204.369 185.017C205.179 184.196 205.99 183.375 206.824 182.53C208.801 180.529 210.779 178.53 212.76 176.534C211.213 172.696 208.814 170.305 205.927 167.419C205.217 166.704 205.217 166.704 204.492 165.974C202.986 164.458 201.473 162.948 199.959 161.439C198.442 159.922 196.927 158.404 195.415 156.883C194.046 155.507 192.673 154.136 191.299 152.765C188.902 150.229 188.348 149.259 187.892 145.783C188.26 142.602 188.26 142.602 190.281 139.67C193.16 137.612 193.16 137.612 196.406 137.363Z" fill="#1F2F3A"/>
<path d="M70.8483 29.693C72.2112 29.7034 73.5742 29.713 74.9371 29.7216C78.6034 29.7475 82.2695 29.7861 85.9356 29.8271C89.7795 29.868 93.6235 29.8969 97.4675 29.9271C104.732 29.986 111.995 30.0554 119.259 30.1287C127.535 30.2118 135.812 30.2829 144.088 30.3531C161.099 30.4975 178.109 30.6568 195.12 30.826C195.443 32.1434 195.767 33.4607 196.1 34.818C195.303 34.3322 195.303 34.3322 194.491 33.8367C191.691 32.6071 189.614 32.5654 186.566 32.5551C185.42 32.5466 184.275 32.5381 183.094 32.5293C181.214 32.5307 181.214 32.5307 179.296 32.5321C177.96 32.5261 176.623 32.5193 175.287 32.5117C171.658 32.4941 168.029 32.4894 164.401 32.4882C162.13 32.4867 159.86 32.4825 157.59 32.4772C149.662 32.4587 141.733 32.4506 133.804 32.4521C126.43 32.4533 119.055 32.4323 111.68 32.4008C105.338 32.3746 98.9961 32.364 92.654 32.3652C88.8709 32.3657 85.0882 32.3601 81.3052 32.3389C77.7417 32.3195 74.1786 32.3195 70.615 32.334C68.6975 32.337 66.7801 32.3205 64.8627 32.3031C53.9888 32.3815 46.1612 34.9817 38.232 42.6578C31.2795 50.6067 30.185 60.1917 30.2443 70.4211C30.2426 71.4826 30.241 72.5441 30.2392 73.6377C30.236 77.1882 30.2468 80.7385 30.2575 84.2889C30.258 86.8366 30.2577 89.3842 30.2566 91.9318C30.2562 97.4134 30.2617 102.895 30.2728 108.376C30.2887 116.302 30.2938 124.227 30.2963 132.152C30.3006 145.012 30.3136 157.871 30.3321 170.73C30.3501 183.22 30.364 195.709 30.3723 208.198C30.3728 208.969 30.3734 209.739 30.3739 210.532C30.3764 214.397 30.3789 218.261 30.3814 222.125C30.4017 254.167 30.4362 286.208 30.48 318.25C27.4001 314.788 26.0697 312.747 26.082 308.055C26.0752 307.022 26.0684 305.989 26.0614 304.925C26.0802 303.234 26.0802 303.234 26.0994 301.509C26.0973 300.308 26.0952 299.107 26.093 297.87C26.0912 294.547 26.107 291.225 26.1304 287.902C26.1513 284.336 26.1498 280.769 26.1512 277.203C26.1574 270.26 26.1849 263.316 26.2198 256.373C26.2476 250.757 26.2671 245.141 26.2806 239.525C26.2825 238.728 26.2845 237.931 26.2864 237.11C26.2903 235.495 26.2942 233.88 26.298 232.265C26.3426 214.117 26.4285 195.969 26.5231 177.821C26.5637 169.967 26.5979 162.113 26.6319 154.259C26.703 137.953 26.7948 121.648 26.9022 105.342C26.9275 101.365 26.9501 97.3878 26.9721 93.4107C27.0073 87.2099 27.0528 81.0093 27.1066 74.8087C27.1248 72.5453 27.1398 70.2819 27.1514 68.0184C27.1677 64.9572 27.1959 61.8962 27.2275 58.8351C27.2296 57.9369 27.2318 57.0388 27.2339 56.1135C27.3161 50.016 27.3161 50.016 29.5 47.792C30.4702 47.792 31.4404 47.792 32.44 47.792C32.44 46.804 32.44 45.816 32.44 44.798C33.0868 44.798 33.7336 44.798 34.4 44.798C34.5819 44.0982 34.7638 43.3983 34.9512 42.6773C36.8615 38.7866 39.641 36.1822 43.22 33.82C44.1902 33.82 45.1604 33.82 46.16 33.82C46.16 33.1613 46.16 32.5026 46.16 31.824C54.4594 29.9064 62.3607 29.5812 70.8483 29.693Z" fill="#2DBC77"/>
<path d="M71.568 9.64139C73.0082 9.64195 74.4484 9.64163 75.8886 9.64051C79.7653 9.63994 83.642 9.6516 87.5187 9.6656C91.5824 9.67815 95.6461 9.67926 99.7098 9.68162C107.39 9.68781 115.071 9.70416 122.751 9.72424C131.501 9.74661 140.251 9.75754 149.002 9.76754C166.988 9.78836 184.974 9.82342 202.96 9.86799C202.96 10.1973 202.96 10.5267 202.96 10.866C133.106 11.36 133.106 11.36 61.84 11.864C61.84 12.5227 61.84 13.1813 61.84 13.86C60.223 14.5187 58.606 15.1773 56.94 15.856C56.2932 15.1973 55.6464 14.5386 54.98 13.86C54.0098 14.1893 53.0396 14.5187 52.04 14.858C51.2921 14.8168 50.5443 14.7757 49.7738 14.7332C46.2989 14.8978 44.1789 15.9604 41.26 17.852C40.3188 19.9247 40.3188 19.9247 40.28 21.844C39.6332 21.844 38.9864 21.844 38.32 21.844C38.32 22.5027 38.32 23.1613 38.32 23.84C36.0562 23.84 33.7924 23.84 31.46 23.84C31.5206 24.6016 31.5813 25.3632 31.6438 26.1479C31.46 28.83 31.46 28.83 29.99 30.6389C29.5049 31.03 29.0198 31.421 28.52 31.824C28.52 31.1653 28.52 30.5066 28.52 29.828C27.8732 29.828 27.2264 29.828 26.56 29.828C26.56 30.4867 26.56 31.1453 26.56 31.824C25.2664 32.1533 23.9728 32.4827 22.64 32.822C22.64 33.81 22.64 34.798 22.64 35.816C23.2868 35.816 23.9336 35.816 24.6 35.816C24.2766 36.804 23.9532 37.792 23.62 38.81C22.67 39.0776 21.72 39.3452 20.7413 39.6209C17.4689 40.5006 17.4689 40.5006 16.4538 43.7376C16.2314 44.7462 16.0091 45.7548 15.78 46.794C15.4566 47.782 15.1332 48.77 14.8 49.788C15.3154 50.6525 15.3154 50.6525 15.8413 51.5345C17.2428 54.9601 15.9524 57.3756 14.8 60.766C15.4468 61.0953 16.0936 61.4247 16.76 61.764C15.5776 62.3506 15.5776 62.3506 14.3713 62.9491C11.6951 64.48 11.6951 64.48 11.2186 66.9802C10.8498 69.9951 10.7736 72.8831 10.7918 75.922C10.7961 77.1803 10.8004 78.4386 10.8048 79.735C10.8115 80.7543 10.8115 80.7543 10.8184 81.7942C10.8429 85.6121 10.8492 89.43 10.8587 93.248C10.8612 94.0783 10.8637 94.9087 10.8663 95.7642C10.8939 106.13 10.8403 116.496 10.79 126.863C10.7803 128.961 10.7706 131.059 10.7609 133.157C10.7353 138.652 10.7088 144.147 10.6821 149.642C10.6541 155.453 10.6269 161.265 10.5997 167.076C10.5483 178.021 10.4961 188.966 10.4435 199.912C10.3836 212.397 10.3247 224.883 10.2658 237.369C10.1449 262.999 10.0228 288.628 9.9 314.258C9.5766 314.258 9.2532 314.258 8.92 314.258C8.87525 282.024 8.84059 249.791 8.81992 217.557C8.81746 213.748 8.81492 209.94 8.81233 206.131C8.81182 205.373 8.81131 204.615 8.81078 203.834C8.80226 191.569 8.78681 179.305 8.76878 167.041C8.75043 154.45 8.73956 141.859 8.73558 129.267C8.7329 121.502 8.72443 113.738 8.70848 105.973C8.69686 100.011 8.69568 94.0496 8.69831 88.0878C8.69777 85.6478 8.69389 83.2079 8.68636 80.7679C8.67656 77.4284 8.67897 74.0891 8.6843 70.7496C8.67859 69.7913 8.67288 68.8331 8.667 67.8458C8.73961 50.944 13.7936 37.2812 24.9675 24.7756C29.0451 20.7609 33.2469 17.9633 38.2588 15.357C38.8776 15.0314 39.4965 14.7059 40.1341 14.3704C50.0878 9.54112 60.751 9.58141 71.568 9.64139Z" fill="#38C173"/>
<path d="M38.32 41.804C38.32 44.7508 37.8899 46.2856 36.85 48.9771C36.5771 49.6911 36.3043 50.4051 36.0231 51.1408C35.8109 51.6824 35.5987 52.224 35.38 52.782C34.7332 52.782 34.0864 52.782 33.42 52.782C32.419 58.673 32.2947 64.3966 32.2958 70.3674C32.2922 71.4232 32.2886 72.4791 32.2849 73.5669C32.2741 77.0987 32.2703 80.6304 32.2665 84.1622C32.2604 86.6969 32.2539 89.2316 32.247 91.7662C32.2282 99.364 32.2178 106.962 32.2091 114.56C32.2048 118.141 32.1995 121.723 32.1944 125.304C32.1777 137.214 32.1635 149.124 32.1564 161.034C32.1545 164.12 32.1527 167.206 32.1507 170.292C32.1503 171.059 32.1498 171.826 32.1493 172.616C32.1412 185.05 32.1163 197.483 32.0845 209.916C32.0521 222.692 32.0344 235.467 32.0313 248.243C32.0292 255.412 32.0206 262.581 31.9956 269.75C31.9721 276.49 31.9686 283.231 31.9787 289.972C31.9792 292.445 31.973 294.919 31.9595 297.392C31.9422 300.77 31.9491 304.146 31.962 307.524C31.9513 308.502 31.9405 309.479 31.9294 310.487C31.9797 315.933 32.6921 319.79 35.3997 324.523C36.7681 326.961 37.5308 329.543 38.32 332.222C32.9303 327.713 30.6583 321.083 29.5 314.258C29.4145 312.742 29.3719 311.222 29.3685 309.703C29.3641 308.814 29.3597 307.925 29.3552 307.009C29.3554 306.041 29.3556 305.074 29.3558 304.077C29.3522 303.042 29.3486 302.007 29.3449 300.941C29.334 297.467 29.3303 293.994 29.3265 290.52C29.3204 288.032 29.3139 285.543 29.307 283.054C29.2882 275.583 29.2778 268.112 29.2691 260.64C29.2648 257.118 29.2595 253.596 29.2544 250.073C29.2377 238.357 29.2235 226.641 29.2164 214.925C29.2145 211.886 29.2127 208.848 29.2107 205.81C29.2103 205.054 29.2098 204.299 29.2093 203.521C29.2012 191.297 29.1763 179.073 29.1445 166.848C29.1121 154.285 29.0944 141.721 29.0913 129.158C29.0892 122.109 29.0807 115.061 29.0556 108.012C29.032 101.378 29.0286 94.7438 29.0387 88.1094C29.0392 85.6795 29.033 83.2496 29.0195 80.8197C28.8752 53.2402 28.8752 53.2402 36.115 44.0495C36.8426 43.3085 37.5703 42.5675 38.32 41.804Z" fill="#D0FEED"/>
<path d="M226.48 110.666C241.68 110.666 256.88 110.666 272.54 110.666C276.951 118.526 276.951 118.526 277.011 125.103C277.022 125.822 277.034 126.541 277.046 127.282C277.08 129.682 277.086 132.081 277.092 134.482C277.109 136.22 277.129 137.957 277.149 139.695C277.2 144.434 277.224 149.173 277.243 153.911C277.256 156.887 277.277 159.862 277.3 162.837C277.556 196.283 277.429 229.729 277.162 263.174C277.134 266.731 277.109 270.288 277.084 273.845C277.044 279.458 276.992 285.07 276.932 290.683C276.911 292.756 276.893 294.83 276.878 296.904C276.857 299.743 276.824 302.582 276.788 305.422C276.784 306.25 276.781 307.079 276.777 307.933C276.709 312.147 276.4 315.401 274.5 319.248C274.177 319.248 273.853 319.248 273.52 319.248C273.525 317.678 273.525 317.678 273.531 316.077C273.618 290.641 273.682 265.204 273.723 239.768C273.743 227.467 273.771 215.166 273.816 202.866C273.855 192.147 273.88 181.429 273.889 170.711C273.894 165.033 273.906 159.355 273.934 153.677C273.961 148.337 273.969 142.997 273.963 137.657C273.964 135.693 273.972 133.73 273.987 131.766C274.007 129.092 274.002 126.419 273.991 123.745C274.009 122.57 274.009 122.57 274.026 121.371C273.995 117.088 273.995 117.088 271.662 113.678C269.337 112.533 267.773 112.268 265.197 112.23C264.334 112.211 263.471 112.191 262.582 112.171C261.659 112.164 260.736 112.158 259.785 112.151C258.833 112.133 257.882 112.115 256.901 112.097C253.866 112.043 250.831 112.009 247.795 111.976C245.735 111.943 243.676 111.908 241.616 111.873C236.571 111.788 231.526 111.721 226.48 111.664C226.48 111.335 226.48 111.005 226.48 110.666Z" fill="#24B295"/>
<path d="M269.6 112.662C273.397 114.533 273.397 114.533 274.5 115.656C274.602 118.198 274.64 120.713 274.638 123.255C274.642 124.464 274.642 124.464 274.646 125.696C274.655 128.417 274.656 131.137 274.658 133.858C274.662 135.8 274.667 137.742 274.673 139.684C274.686 144.978 274.692 150.271 274.696 155.565C274.699 158.872 274.703 162.178 274.707 165.485C274.721 175.828 274.73 186.172 274.734 196.515C274.738 208.458 274.756 220.401 274.784 232.343C274.805 241.57 274.815 250.796 274.816 260.023C274.817 265.535 274.823 271.047 274.841 276.559C274.857 281.749 274.859 286.939 274.85 292.129C274.85 294.03 274.854 295.932 274.864 297.834C274.876 300.438 274.87 303.041 274.86 305.645C274.868 306.391 274.876 307.137 274.884 307.905C274.821 314.824 273.321 321.989 268.62 327.232C268.62 325.585 268.62 323.939 268.62 322.242C269.267 322.242 269.914 322.242 270.58 322.242C270.58 320.925 270.58 319.607 270.58 318.25C271.227 318.25 271.874 318.25 272.54 318.25C272.481 292.017 272.405 265.784 272.309 239.551C272.265 227.371 272.226 215.191 272.2 203.011C272.178 192.398 272.145 181.785 272.1 171.172C272.077 165.55 272.058 159.927 272.052 154.305C272.046 149.018 272.027 143.73 271.997 138.443C271.988 136.498 271.985 134.554 271.986 132.609C271.988 129.962 271.972 127.315 271.951 124.667C271.955 123.892 271.96 123.116 271.965 122.317C271.94 118.194 271.94 118.194 270.066 114.656C269.589 114.327 269.111 113.999 268.62 113.66C268.943 113.331 269.267 113.001 269.6 112.662Z" fill="#D7FEFE"/>
<path d="M59.88 343.2C120.679 343.2 181.478 343.2 244.12 343.2C239.288 346.481 234.881 346.315 229.169 346.29C228.111 346.287 228.111 346.287 227.03 346.284C224.671 346.277 222.312 346.262 219.953 346.247C218.259 346.241 216.566 346.234 214.872 346.228C210.276 346.21 205.68 346.186 201.084 346.159C197.248 346.138 193.412 346.119 189.576 346.101C180.528 346.056 171.481 346.006 162.434 345.953C153.096 345.898 143.758 345.854 134.419 345.815C126.404 345.781 118.388 345.74 110.372 345.693C105.584 345.665 100.796 345.64 96.0073 345.622C91.5067 345.606 87.0063 345.58 82.5059 345.546C80.853 345.536 79.2 345.528 77.5471 345.525C75.2934 345.519 73.04 345.501 70.7864 345.481C69.5245 345.474 68.2625 345.467 66.9623 345.46C63.8 345.196 63.8 345.196 59.88 343.2Z" fill="#48D0A2"/>
<path d="M198.914 280.919C201 281.324 201 281.324 203.511 282.759C205.615 286.577 205.797 290.028 204.92 294.298C202.305 297.607 200.69 298.18 196.59 298.851C193.16 298.29 193.16 298.29 190.281 296.232C187.737 292.542 187.562 290.739 188.26 286.314C190.754 281.125 193.605 280.562 198.914 280.919Z" fill="#32CF6F"/>
<path d="M70.8483 29.693C72.2112 29.7034 73.5742 29.713 74.9372 29.7216C78.6034 29.7475 82.2695 29.7861 85.9356 29.8271C89.7795 29.868 93.6235 29.8969 97.4675 29.9271C104.732 29.986 111.995 30.0554 119.259 30.1287C127.535 30.2118 135.812 30.2829 144.088 30.3531C161.099 30.4975 178.109 30.6568 195.12 30.826C195.443 32.1434 195.767 33.4607 196.1 34.818C195.303 34.3322 195.303 34.3322 194.491 33.8367C191.691 32.6071 189.614 32.5654 186.566 32.5551C185.42 32.5466 184.275 32.5381 183.094 32.5293C181.214 32.5307 181.214 32.5307 179.296 32.5321C177.96 32.5261 176.623 32.5193 175.287 32.5117C171.658 32.4941 168.029 32.4894 164.401 32.4882C162.13 32.4867 159.86 32.4825 157.59 32.4772C149.662 32.4587 141.733 32.4506 133.804 32.4521C126.43 32.4533 119.055 32.4323 111.68 32.4008C105.338 32.3746 98.9961 32.364 92.654 32.3652C88.8709 32.3657 85.0882 32.3601 81.3052 32.3389C77.7417 32.3195 74.1786 32.3195 70.615 32.334C68.6975 32.337 66.7801 32.3205 64.8627 32.3031C53.9888 32.3815 46.1612 34.9817 38.232 42.6578C33.8696 47.6453 32.0465 53.387 30.48 59.768C30.1566 59.768 29.8332 59.768 29.5 59.768C29.191 53.7901 29.8114 50.1517 32.44 44.798C33.0868 44.798 33.7336 44.798 34.4 44.798C34.5819 44.0982 34.7638 43.3983 34.9513 42.6773C36.8615 38.7866 39.641 36.1822 43.22 33.82C44.1902 33.82 45.1604 33.82 46.16 33.82C46.16 33.1613 46.16 32.5026 46.16 31.824C54.4594 29.9064 62.3607 29.5812 70.8483 29.693Z" fill="#44C989"/>
<path d="M253.92 60.766C254.567 60.766 255.214 60.766 255.88 60.766C257.094 62.0279 257.094 62.0279 258.583 63.8965C261.93 67.9072 265.49 71.6228 269.164 75.3189C270.032 76.1945 270.032 76.1945 270.917 77.0878C273.34 79.5281 275.767 81.9642 278.198 84.3961C279.989 86.1897 281.773 87.9894 283.557 89.7899C284.11 90.3388 284.662 90.8877 285.231 91.4532C287.597 93.8475 289.11 95.4199 290.18 98.69C289.21 99.184 289.21 99.184 288.22 99.688C288.22 98.7 288.22 97.712 288.22 96.694C286.926 96.694 285.633 96.694 284.3 96.694C284.3 95.3766 284.3 94.0593 284.3 92.702C282.683 92.702 281.066 92.702 279.4 92.702C279.299 92.1051 279.198 91.5081 279.094 90.8931C278.29 88.2886 277.732 87.2185 275.48 85.716C272.394 85.9484 272.394 85.9484 269.6 86.714C269.459 86.1171 269.317 85.5201 269.171 84.9051C268.73 83.1596 268.2 81.4378 267.64 79.728C266.892 79.7692 266.144 79.8103 265.374 79.8528C262.74 79.728 262.74 79.728 259.8 77.732C259.8 75.736 259.8 73.74 259.8 71.744C256.85 70.8116 256.011 70.7016 252.94 71.744C251.576 67.5775 252.581 64.8555 253.92 60.766Z" fill="#0BC09C"/>
<path d="M227.46 32.822C232.754 37.3275 237.709 42.0788 242.589 47.0435C243.306 47.7613 244.023 48.4792 244.761 49.2188C245.776 50.2493 245.776 50.2493 246.811 51.3006C247.424 51.921 248.038 52.5414 248.669 53.1806C250 54.778 250 54.778 250 56.774C250.647 56.774 251.294 56.774 251.96 56.774C251.96 57.4327 251.96 58.0914 251.96 58.77C252.607 58.77 253.254 58.77 253.92 58.77C253.92 59.4287 253.92 60.0874 253.92 60.766C249.611 60.2645 247.261 58.797 244.12 55.776C243.797 54.788 243.473 53.8 243.14 52.782C242.817 53.77 242.493 54.758 242.16 55.776C239.758 54.7975 238.468 54.1279 237.015 51.9087C236.28 49.788 236.28 49.788 236.28 45.796C234.016 46.1253 231.752 46.4547 229.42 46.794C229.743 44.1593 230.067 41.5246 230.4 38.81C228.46 38.81 226.519 38.81 224.52 38.81C225.082 35.9485 225.364 34.9563 227.46 32.822Z" fill="#14BB95"/>
<path d="M68.4335 31.4524C69.7832 31.45 71.1328 31.4463 72.4825 31.4414C76.1268 31.4321 79.7708 31.4414 83.4151 31.4547C87.2333 31.466 91.0515 31.4619 94.8697 31.4599C101.274 31.4591 107.678 31.4701 114.082 31.4885C121.49 31.5097 128.899 31.5131 136.307 31.5069C143.438 31.5012 150.569 31.5068 157.7 31.5181C160.734 31.5227 163.769 31.5236 166.804 31.5215C170.37 31.5196 173.937 31.5276 177.503 31.5435C179.441 31.5497 181.379 31.5462 183.316 31.5424C185.035 31.553 185.035 31.553 186.788 31.5638C187.788 31.5659 188.788 31.5679 189.818 31.57C192.18 31.824 192.18 31.824 194.14 33.82C193.086 33.8159 193.086 33.8159 192.011 33.8116C174.917 33.7455 157.822 33.696 140.728 33.6649C132.461 33.6494 124.195 33.6284 115.928 33.5941C108.723 33.5643 101.518 33.545 94.3124 33.5383C90.4972 33.5344 86.6821 33.5252 82.867 33.5035C79.2754 33.4831 75.6841 33.4769 72.0925 33.4814C70.1472 33.4801 68.2018 33.464 66.2566 33.4475C65.0954 33.4516 63.9342 33.4557 62.7379 33.46C61.7307 33.4572 60.7234 33.4544 59.6857 33.4516C56.5041 33.8785 54.6887 35.0205 52.04 36.814C49.4072 37.427 46.9044 37.5786 44.2 37.812C50.7043 30.6547 59.5476 31.3983 68.4335 31.4524Z" fill="#DEFEF8"/>
<path d="M13.82 331.224C14.204 331.677 14.5881 332.13 14.9837 332.596C17.1081 334.536 18.934 335.381 21.66 336.214C22.6302 335.885 23.6004 335.555 24.6 335.216C24.2766 337.851 23.9532 340.485 23.62 343.2C24.1859 343.344 24.7519 343.488 25.335 343.637C28.3975 344.416 28.3975 344.416 31.46 345.196C31.7834 347.172 32.1068 349.148 32.44 351.184C33.7336 351.184 35.0272 351.184 36.36 351.184C36.6834 351.843 37.0068 352.501 37.34 353.18C37.0166 354.168 36.6932 355.156 36.36 356.174C37.0068 356.174 37.6536 356.174 38.32 356.174C38.32 356.833 38.32 357.491 38.32 358.17C39.2902 358.17 40.2604 358.17 41.26 358.17C41.26 358.829 41.26 359.487 41.26 360.166C31.9565 357.98 23.2947 349.503 17.9697 341.645C13.82 334.842 13.82 334.842 13.82 331.224Z" fill="#19C473"/>
<path d="M29.5 47.792C30.1468 47.792 30.7936 47.792 31.46 47.792C31.3232 48.5492 31.1864 49.3064 31.0455 50.0866C28.9376 63.542 29.1532 77.0455 29.0942 90.6397C29.0769 93.3258 29.0568 96.0118 29.0367 98.6978C28.9912 105.006 28.955 111.315 28.9224 117.624C28.8847 124.816 28.8363 132.009 28.7871 139.201C28.6864 153.974 28.5987 168.747 28.52 183.52C28.1966 183.52 27.8732 183.52 27.54 183.52C26.7844 174.996 26.4314 166.576 26.5076 158.02C26.5139 156.843 26.5201 155.667 26.5266 154.454C26.5487 150.614 26.5788 146.774 26.6098 142.933C26.6242 140.928 26.638 138.924 26.6517 136.919C26.6951 130.64 26.7443 124.362 26.7971 118.083C26.8514 111.61 26.8944 105.136 26.9322 98.6625C26.9652 93.0869 27.0057 87.5115 27.0521 81.936C27.0796 78.6128 27.1033 75.2896 27.1213 71.9664C27.1423 68.2754 27.1756 64.5847 27.212 60.8939C27.2156 59.7923 27.2193 58.6907 27.2231 57.5557C27.2354 56.5556 27.2478 55.5555 27.2605 54.5252C27.2672 53.6533 27.2739 52.7815 27.2808 51.8833C27.54 49.788 27.54 49.788 29.5 47.792Z" fill="#21C471"/>
<path d="M11.86 49.788C14.2855 50.776 14.2855 50.776 16.76 51.784C16.1132 54.7481 15.4664 57.7121 14.8 60.766C15.4468 61.0953 16.0936 61.4247 16.76 61.764C15.9717 62.1551 15.1834 62.5462 14.3712 62.9491C11.7157 64.4721 11.7157 64.4721 11.219 66.8717C10.7943 70.4752 10.7587 74.0352 10.7843 77.6579C10.7857 78.404 10.7871 79.1501 10.7885 79.9188C10.794 82.2879 10.8063 84.6568 10.8187 87.0259C10.8237 88.6379 10.8281 90.2499 10.8321 91.8619C10.8429 95.8013 10.8598 99.7406 10.88 103.68C9.9098 104.174 9.9098 104.174 8.92 104.678C8.92 89.8577 8.92 75.0374 8.92 59.768C9.5668 59.768 10.2136 59.768 10.88 59.768C10.8497 58.1316 10.8497 58.1316 10.8187 56.4621C10.88 52.782 10.88 52.782 11.86 49.788Z" fill="#31C968"/>
<path d="M272.54 319.248C273.442 322.35 273.983 325.009 273.52 328.23C271.192 330.787 271.192 330.787 268.62 333.22C267.351 335.382 267.351 335.382 266.66 337.212C266.013 337.212 265.366 337.212 264.7 337.212C263.73 339.682 263.73 339.682 262.74 342.202C261.77 342.202 260.8 342.202 259.8 342.202C255.55 342.376 255.55 342.376 251.96 344.198C249.343 344.339 246.742 344.24 244.12 344.198C246.731 342.426 248.242 341.776 251.164 340.955C260.854 337.735 266.737 330.678 271.437 321.743C271.801 320.92 272.165 320.096 272.54 319.248Z" fill="#1EC19E"/>
<path d="M293.12 303.28C293.443 303.28 293.767 303.28 294.1 303.28C295.138 316.343 292.77 331.261 285.165 342.023C282.5 345.164 279.713 347.685 276.46 350.186C276.46 348.21 276.46 346.234 276.46 344.198C278.4 343.539 280.341 342.881 282.34 342.202C282.34 341.543 282.34 340.885 282.34 340.206C283.31 339.712 283.31 339.712 284.3 339.208C284.26 338.158 284.219 337.108 284.178 336.027C284.292 332.481 284.763 330.377 286.26 327.232C287.554 327.232 288.847 327.232 290.18 327.232C290.239 326.235 290.299 325.238 290.36 324.211C290.442 322.923 290.524 321.635 290.609 320.308C290.688 319.023 290.768 317.738 290.85 316.414C291.16 313.26 291.16 313.26 292.14 312.262C292.367 310.75 292.544 309.231 292.691 307.709C292.773 306.884 292.855 306.059 292.94 305.21C293.029 304.255 293.029 304.255 293.12 303.28Z" fill="#0AC09B"/>
<path d="M253.92 60.766C255.88 60.766 255.88 60.766 257.503 62.3722C258.099 63.0772 258.696 63.7821 259.31 64.5085C259.906 65.2032 260.503 65.8979 261.117 66.6137C263.499 69.7488 264.7 71.7311 264.7 75.736C265.994 76.0653 267.287 76.3947 268.62 76.734C268.297 77.722 267.973 78.71 267.64 79.728C263.998 79.9285 262.963 79.8796 259.8 77.732C259.8 75.736 259.8 73.74 259.8 71.744C256.85 70.8116 256.011 70.7016 252.94 71.744C251.576 67.5775 252.581 64.8555 253.92 60.766Z" fill="#10BF9A"/>
<path d="M200.02 284.318C203.88 287.634 203.88 287.634 204.185 291.054C204.104 291.796 204.023 292.537 203.94 293.3C203.293 293.3 202.646 293.3 201.98 293.3C201.657 294.288 201.333 295.276 201 296.294C198.089 296.294 195.179 296.294 192.18 296.294C192.18 295.306 192.18 294.318 192.18 293.3C191.533 293.3 190.886 293.3 190.22 293.3C190.782 290.438 191.064 289.446 193.16 287.312C196.713 287.187 196.713 287.187 200.02 287.312C200.02 286.324 200.02 285.336 200.02 284.318Z" fill="#1FCE71"/>
<path d="M196.651 137.55C200.186 138.662 201.647 139.707 203.94 142.602C199.285 143.6 199.285 143.6 197.08 143.6C196.696 144.567 196.312 145.535 195.916 146.532C194.14 149.588 194.14 149.588 191.506 150.461C190.758 150.502 190.011 150.544 189.24 150.586C187.825 147.703 187.891 145.799 188.26 142.602C190.88 138.802 192.03 137.632 196.651 137.55Z" fill="#273540"/>
<path d="M63.8 10.866C63.1532 11.1953 62.5064 11.5247 61.84 11.864C61.84 12.5227 61.84 13.1814 61.84 13.86C60.223 14.5187 58.606 15.1774 56.94 15.856C56.2932 15.1973 55.6464 14.5386 54.98 13.86C54.0098 14.1893 53.0396 14.5187 52.04 14.858C51.3528 14.8168 50.6655 14.7757 49.9575 14.7333C41.9985 15.0856 35.7739 19.1728 29.5 23.84C28.8532 23.5107 28.2064 23.1813 27.54 22.842C37.642 14.2641 50.4214 7.83837 63.8 10.866Z" fill="#49C773"/>
<path d="M212.76 107.672C213.856 107.984 213.856 107.984 214.973 108.303C226.247 111.163 237.338 111.22 248.898 111.352C250.912 111.385 252.927 111.42 254.942 111.455C259.828 111.539 264.714 111.606 269.6 111.664C269.6 111.993 269.6 112.323 269.6 112.662C262.45 112.738 255.301 112.79 248.151 112.826C245.719 112.842 243.288 112.862 240.856 112.888C237.358 112.924 233.86 112.941 230.362 112.954C228.735 112.978 228.735 112.978 227.076 113.001C221.477 113.002 217.493 112.838 212.76 109.668C212.76 109.009 212.76 108.351 212.76 107.672Z" fill="#DCFEFE"/>
<path d="M9.9 311.264C10.2234 311.923 10.5468 312.581 10.88 313.26C11.5268 313.26 12.1736 313.26 12.84 313.26C12.84 312.601 12.84 311.943 12.84 311.264C13.8102 311.264 14.7804 311.264 15.78 311.264C15.4566 314.228 15.1332 317.192 14.8 320.246C15.4468 320.575 16.0936 320.905 16.76 321.244C16.2749 321.594 15.7898 321.944 15.29 322.304C13.104 325.18 13.6242 327.701 13.82 331.224C10.5237 327.867 9.97159 323.937 9.7775 319.342C9.7775 316.646 9.8139 313.958 9.9 311.264Z" fill="#21C677"/>
<path d="M30.48 271.344C30.8034 271.344 31.1268 271.344 31.46 271.344C31.4636 271.914 31.4671 272.484 31.4708 273.071C31.512 279.03 31.58 284.988 31.6634 290.946C31.6909 293.166 31.7118 295.387 31.7256 297.607C31.7467 300.809 31.7924 304.009 31.8428 307.21C31.844 308.194 31.8452 309.179 31.8465 310.194C31.9604 315.727 32.6488 319.725 35.4039 324.535C36.7724 326.967 37.532 329.547 38.32 332.222C33.5756 328.253 30.9323 322.758 30.1382 316.596C30.0296 313.686 30.0384 310.803 30.0972 307.892C30.1027 306.841 30.1083 305.791 30.114 304.708C30.1358 301.383 30.1849 298.059 30.235 294.735C30.2547 292.468 30.2726 290.201 30.2886 287.934C30.3316 282.403 30.397 276.874 30.48 271.344Z" fill="#EAFFF9"/>
<path d="M29.5 47.792C30.1468 47.792 30.7936 47.792 31.46 47.792C31.3256 48.6244 31.1912 49.4569 31.0528 50.3145C29.39 61.5927 29.0755 72.7665 28.8875 84.1566C28.85 86.0597 28.8117 87.9628 28.7727 89.8659C28.6798 94.4705 28.597 99.0751 28.52 103.68C28.1966 103.68 27.8732 103.68 27.54 103.68C27.4904 96.0415 27.456 88.4031 27.4323 80.7645C27.4225 78.1642 27.4091 75.564 27.3921 72.9637C27.3684 69.233 27.3573 65.5025 27.3486 61.7718C27.3385 60.6033 27.3284 59.4347 27.3179 58.2308C27.3178 57.152 27.3176 56.0732 27.3175 54.9617C27.3131 54.0088 27.3088 53.0558 27.3043 52.074C27.54 49.788 27.54 49.788 29.5 47.792Z" fill="#31CD6B"/>
<path d="M222.56 190.506C223.207 190.835 223.854 191.165 224.52 191.504C208.06 208.266 208.06 208.266 205.471 210.653C204.594 211.477 204.594 211.477 203.699 212.318C203.132 212.695 202.564 213.072 201.98 213.46C201.01 213.131 200.04 212.801 199.04 212.462C199.458 212.108 199.876 211.754 200.307 211.39C205.556 206.838 210.41 201.951 215.228 196.938C217.579 194.506 219.762 192.405 222.56 190.506Z" fill="#DBE1E4"/>
<path d="M238.24 43.8C242.331 47.2938 246.388 50.7656 250 54.778C250 55.4367 250 56.0954 250 56.774C250.647 56.774 251.294 56.774 251.96 56.774C251.96 57.4327 251.96 58.0914 251.96 58.77C252.607 58.77 253.254 58.77 253.92 58.77C253.92 59.4287 253.92 60.0874 253.92 60.766C249.611 60.2646 247.261 58.797 244.12 55.776C243.797 54.788 243.473 53.8 243.14 52.782C242.817 53.77 242.493 54.758 242.16 55.776C241.513 55.1173 240.866 54.4586 240.2 53.78C240.847 52.4626 241.494 51.1453 242.16 49.788C241.513 49.1705 240.866 48.553 240.2 47.9168C238.24 45.796 238.24 45.796 238.24 43.8Z" fill="#1CBB98"/>
<path d="M204.92 282.322C204.597 283.31 204.273 284.298 203.94 285.316C203.349 284.588 203.349 284.588 202.746 283.846C200.04 281.484 197.672 281.839 194.236 281.987C192.059 282.186 192.059 282.186 190.159 283.757C188.783 287.585 189.012 291.265 189.24 295.296C188.593 295.296 187.946 295.296 187.28 295.296C186.957 291.673 186.633 288.051 186.3 284.318C187.594 283.659 188.887 283.001 190.22 282.322C190.22 281.663 190.22 281.005 190.22 280.326C195.598 278.832 200.245 279.148 204.92 282.322Z" fill="#D4FBE4"/>
<path d="M226.48 110.666C241.68 110.666 256.88 110.666 272.54 110.666C273.025 112.642 273.025 112.642 273.52 114.658C272.964 114.335 272.408 114.012 271.835 113.68C269.424 112.582 267.822 112.39 265.197 112.344C264.334 112.324 263.471 112.304 262.582 112.284C261.659 112.272 260.736 112.261 259.785 112.249C258.833 112.229 257.882 112.21 256.901 112.19C253.866 112.131 250.831 112.084 247.795 112.038C245.735 112 243.676 111.961 241.616 111.921C236.571 111.826 231.526 111.742 226.48 111.664C226.48 111.335 226.48 111.005 226.48 110.666Z" fill="#37BEA0"/>
<path d="M38.32 41.804C38.32 44.7508 37.8899 46.2856 36.85 48.9771C36.5771 49.6911 36.3043 50.4051 36.0231 51.1408C35.8109 51.6824 35.5987 52.224 35.38 52.782C34.7332 52.782 34.0864 52.782 33.42 52.782C32.7732 58.7101 32.1264 64.6382 31.46 70.746C31.1366 70.746 30.8132 70.746 30.48 70.746C29.9422 59.1992 30.4139 50.718 38.32 41.804Z" fill="#DEFDE9"/>
<path d="M203.94 285.316C204.263 285.316 204.587 285.316 204.92 285.316C205.678 293.339 205.678 293.339 202.899 296.855C199.263 298.667 197.161 298.945 193.16 298.29C190.281 296.232 190.281 296.232 188.26 293.3C187.954 289.495 187.954 289.495 188.26 286.314C188.583 286.314 188.907 286.314 189.24 286.314C189.563 288.619 189.887 290.925 190.22 293.3C190.867 293.3 191.514 293.3 192.18 293.3C192.18 294.288 192.18 295.276 192.18 296.294C195.091 296.294 198.001 296.294 201 296.294C201.323 294.977 201.647 293.659 201.98 292.302C202.627 292.631 203.274 292.961 203.94 293.3C203.94 290.665 203.94 288.031 203.94 285.316Z" fill="#3CC280"/>
<path d="M288.22 333.22C288.543 333.879 288.867 334.537 289.2 335.216C285.45 341.034 282.004 346.055 276.46 350.186C276.46 348.21 276.46 346.234 276.46 344.198C278.4 343.539 280.341 342.881 282.34 342.202C282.34 341.543 282.34 340.885 282.34 340.206C282.987 339.877 283.634 339.547 284.3 339.208C284.3 337.891 284.3 336.573 284.3 335.216C285.594 334.557 286.887 333.899 288.22 333.22Z" fill="#1AB696"/>
<path d="M275.48 82.722C288.618 93.9165 288.618 93.9165 290.18 98.69C289.533 99.0193 288.886 99.3487 288.22 99.688C288.22 98.7 288.22 97.712 288.22 96.694C286.926 96.694 285.633 96.694 284.3 96.694C284.3 95.3766 284.3 94.0593 284.3 92.702C282.683 92.702 281.066 92.702 279.4 92.702C279.279 92.0639 279.157 91.4258 279.033 90.7684C278.729 89.7495 278.729 89.7495 278.42 88.71C277.773 88.3807 277.126 88.0513 276.46 87.712C275.848 85.1546 275.848 85.1546 275.48 82.722Z" fill="#20B798"/>
<path d="M260.78 70.746C261.75 70.746 262.72 70.746 263.72 70.746C264.043 72.3927 264.367 74.0394 264.7 75.736C265.994 76.0653 267.287 76.3947 268.62 76.734C268.297 77.722 267.973 78.71 267.64 79.728C263.998 79.9285 262.963 79.8796 259.8 77.732C259.8 73.74 259.8 73.74 260.78 70.746Z" fill="#05C59D"/>
<path d="M199.04 10.866C206.277 10.3747 206.277 10.3747 209.33 12.862C209.815 13.5207 210.3 14.1794 210.8 14.858C204.307 15.856 204.307 15.856 201 15.856C199.346 14.359 199.346 14.359 198.06 12.862C198.383 12.2033 198.707 11.5446 199.04 10.866Z" fill="#15C294"/>
<path d="M64.78 31.824C64.78 32.1533 64.78 32.4827 64.78 32.822C63.77 33.0034 63.77 33.0034 62.7396 33.1885C61.8566 33.3557 60.9736 33.5229 60.0638 33.6953C59.1883 33.8574 58.3129 34.0195 57.4109 34.1865C54.7573 34.7301 54.7573 34.7301 52.04 36.814C50.0379 37.2272 50.0379 37.2272 47.9363 37.4378C46.7033 37.5613 45.4703 37.6848 44.2 37.812C49.82 31.5637 56.9825 31.3847 64.78 31.824Z" fill="#D6FCE3"/>
<path d="M62.82 29.828C59.3617 32.1759 55.9551 33.0154 51.9787 34.0071C50.9015 34.2917 50.9015 34.2917 49.8025 34.5821C44.4438 35.9401 44.4438 35.9401 42.24 34.818C43.5336 34.4886 44.8272 34.1593 46.16 33.82C46.16 33.1613 46.16 32.5026 46.16 31.824C57.4512 29.5325 57.4512 29.5325 62.82 29.828Z" fill="#3ECA78"/>
<path d="M290.18 98.69C292.447 100.38 293.935 101.704 294.423 104.602C294.486 106.884 294.442 109.134 294.345 111.414C294.327 112.206 294.31 112.997 294.291 113.812C294.245 115.758 294.175 117.703 294.1 119.648C293.777 119.648 293.453 119.648 293.12 119.648C293.048 118.706 293.048 118.706 292.975 117.746C292.498 112.184 291.574 107.077 290.18 101.684C290.18 100.696 290.18 99.7079 290.18 98.69Z" fill="#15BD9A"/>
<path d="M237.26 245.396C239.097 245.708 239.097 245.708 241.18 246.394C243.561 250.031 243.299 252.095 243.14 256.374C242.817 256.374 242.493 256.374 242.16 256.374C241.837 254.727 241.513 253.081 241.18 251.384C239.886 251.384 238.593 251.384 237.26 251.384C237.26 249.408 237.26 247.432 237.26 245.396Z" fill="#2B3840"/>
<path d="M237.26 44.798C239.2 46.4447 241.141 48.0914 243.14 49.788C241.846 51.1054 240.553 52.4227 239.22 53.78C237.689 52.0959 237.689 52.0959 236.28 49.788C236.586 47.0435 236.586 47.0435 237.26 44.798Z" fill="#07C39B"/>
<path d="M36.36 351.184C36.6834 351.843 37.0068 352.501 37.34 353.18C37.0166 354.168 36.6932 355.156 36.36 356.174C37.0068 356.174 37.6536 356.174 38.32 356.174C38.32 356.833 38.32 357.491 38.32 358.17C39.2902 358.17 40.2604 358.17 41.26 358.17C41.26 358.829 41.26 359.487 41.26 360.166C36.7432 358.852 33.2814 357.02 29.5 354.178C29.5 353.849 29.5 353.519 29.5 353.18C31.7638 352.521 34.0276 351.863 36.36 351.184Z" fill="#21B974"/>
<path d="M199.04 91.704C200.01 92.0333 200.98 92.3627 201.98 92.702C201.98 93.69 201.98 94.678 201.98 95.696C202.627 95.696 203.274 95.696 203.94 95.696C204.263 97.0134 204.587 98.3307 204.92 99.688C206.214 100.017 207.507 100.347 208.84 100.686C209.163 102.003 209.487 103.321 209.82 104.678C206.522 103.272 204.864 101.687 202.776 98.7524C202.277 98.0641 201.778 97.3758 201.264 96.6667C200.02 94.698 200.02 94.698 199.04 91.704Z" fill="#32C29A"/>
<path d="M272.54 319.248C273.352 322.554 273.611 324.896 273.52 328.23C271.903 328.559 270.286 328.889 268.62 329.228C268.62 329.887 268.62 330.545 268.62 331.224C267.973 330.895 267.326 330.565 266.66 330.226C268.6 326.603 270.541 322.981 272.54 319.248Z" fill="#29C0A1"/>
<path d="M189.24 295.296C189.998 295.79 189.998 295.79 190.771 296.294C194.895 298.017 198.787 297.71 202.96 296.294C202.313 297.941 201.666 299.587 201 301.284C199.404 301.056 197.812 300.802 196.223 300.535C195.336 300.397 194.449 300.258 193.535 300.114C191.2 299.288 191.2 299.288 189.906 297.214C189.686 296.581 189.466 295.948 189.24 295.296Z" fill="#D6FDEC"/>
<path d="M44.2 359.168C44.9959 359.627 44.9959 359.627 45.8078 360.096C48.4576 361.32 50.8881 361.8 53.755 362.287C54.7201 362.454 55.6853 362.621 56.6797 362.794C57.7787 362.975 57.7787 362.975 58.9 363.16C58.9 363.489 58.9 363.819 58.9 364.158C52.6927 364.503 48.0194 363.453 42.24 361.164C42.8868 360.505 43.5336 359.847 44.2 359.168Z" fill="#2CB47A"/>
<path d="M40.28 334.218C45.6161 335.7 45.6161 335.7 51.06 337.212C51.06 338.529 51.06 339.847 51.06 341.204C47.034 339.757 43.7408 337.757 40.28 335.216C40.28 334.887 40.28 334.557 40.28 334.218Z" fill="#D4FBEA"/>
<path d="M30.48 317.252C34.9347 321.14 36.6304 326.663 38.32 332.222C34.1454 328.73 32.2864 324.317 30.48 319.248C30.48 318.589 30.48 317.931 30.48 317.252Z" fill="#CDFCE7"/>
<path d="M206.88 96.694C208.82 96.694 210.761 96.694 212.76 96.694C212.437 98.3407 212.113 99.9874 211.78 101.684C211.133 101.684 210.486 101.684 209.82 101.684C209.497 102.343 209.173 103.001 208.84 103.68C208.517 102.692 208.193 101.704 207.86 100.686C207.213 100.027 206.566 99.3686 205.9 98.69C206.223 98.0313 206.547 97.3726 206.88 96.694Z" fill="#09C795"/>
<path d="M226.48 33.82C228.42 35.4667 230.361 37.1134 232.36 38.81C231.713 39.4687 231.066 40.1274 230.4 40.806C230.4 40.1473 230.4 39.4886 230.4 38.81C228.46 38.81 226.519 38.81 224.52 38.81C225.377 34.9428 225.377 34.9428 226.48 33.82Z" fill="#09C49A"/>
<path d="M125.54 216.454C127.966 217.442 127.966 217.442 130.44 218.45C130.44 219.438 130.44 220.426 130.44 221.444C131.087 221.444 131.734 221.444 132.4 221.444C132.4 222.103 132.4 222.761 132.4 223.44C129.23 222.883 127.521 222.071 125.54 219.448C125.54 218.46 125.54 217.472 125.54 216.454Z" fill="#2E3942"/>
<path d="M152.98 148.59C154.274 148.919 155.567 149.249 156.9 149.588C156.9 150.576 156.9 151.564 156.9 152.582C153.633 155.576 153.633 155.576 151.02 155.576C151.667 153.271 152.314 150.965 152.98 148.59Z" fill="#2C3942"/>
<path d="M204.92 161.564C205.567 161.893 206.214 162.223 206.88 162.562C206.88 163.55 206.88 164.538 206.88 165.556C207.527 165.885 208.174 166.215 208.84 166.554C208.517 167.542 208.193 168.53 207.86 169.548C206.185 167.928 204.553 166.261 202.96 164.558C202.96 163.899 202.96 163.241 202.96 162.562C203.607 162.233 204.254 161.903 204.92 161.564Z" fill="#26323D"/>
<path d="M56.94 9.86801C59.2038 10.1974 61.4676 10.5267 63.8 10.866C62.8298 11.36 62.8298 11.36 61.84 11.864C61.84 12.5227 61.84 13.1814 61.84 13.86C60.223 14.5187 58.606 15.1774 56.94 15.856C55.96 12.862 55.96 12.862 56.94 9.86801Z" fill="#28D366"/>
<path d="M212.76 107.672C217.288 108.66 221.815 109.648 226.48 110.666C226.48 110.995 226.48 111.325 226.48 111.664C222.276 111.335 218.072 111.005 213.74 110.666C213.417 109.678 213.093 108.69 212.76 107.672Z" fill="#C3F6EE"/>
<path d="M276.46 89.708C277.43 90.202 277.43 90.202 278.42 90.706C278.42 91.3647 278.42 92.0234 278.42 92.702C279.026 92.5168 279.633 92.3315 280.258 92.1406C282.34 91.704 282.34 91.704 284.3 92.702C284.3 93.3607 284.3 94.0194 284.3 94.698C282.036 94.698 279.772 94.698 277.44 94.698C277.117 93.0513 276.793 91.4046 276.46 89.708Z" fill="#05C49F"/>
<path d="M105.94 144.598C108.366 145.586 108.366 145.586 110.84 146.594C109.223 148.241 107.606 149.887 105.94 151.584C105.94 149.279 105.94 146.973 105.94 144.598Z" fill="#2D3A42"/>
<path d="M263.72 70.746C264.846 71.6983 265.968 72.6557 267.089 73.6153C267.714 74.1479 268.339 74.6805 268.984 75.2292C270.58 76.734 270.58 76.734 271.56 78.73C270.59 78.73 269.62 78.73 268.62 78.73C268.297 78.0713 267.973 77.4126 267.64 76.734C266.67 76.4047 265.7 76.0753 264.7 75.736C264.377 74.0893 264.053 72.4426 263.72 70.746Z" fill="#23B595"/>
<path d="M32.44 329.228C34.8287 330.039 34.8287 330.039 37.34 331.224C37.6634 332.212 37.9868 333.2 38.32 334.218C37.0264 334.218 35.7328 334.218 34.4 334.218C33.7532 333.559 33.1064 332.901 32.44 332.222C32.44 331.234 32.44 330.246 32.44 329.228Z" fill="#17C778"/>
<path d="M196.774 281.074C198.183 281.139 199.593 281.216 201 281.324C201 281.653 201 281.983 201 282.322C199.969 282.446 198.938 282.569 197.876 282.696C194.67 283.232 192.175 283.958 189.24 285.316C191.051 281.383 192.76 281.049 196.774 281.074Z" fill="#53CE81"/>
<path d="M131.42 198.49C132.067 198.49 132.714 198.49 133.38 198.49C133.38 200.137 133.38 201.783 133.38 203.48C132.733 203.48 132.086 203.48 131.42 203.48C131.097 204.468 130.773 205.456 130.44 206.474C129.793 206.145 129.146 205.815 128.48 205.476C129.45 203.171 130.42 200.865 131.42 198.49Z" fill="#343F49"/>
<path d="M201.98 187.512C202.627 188.829 203.274 190.147 203.94 191.504C201.676 192.163 199.412 192.821 197.08 193.5C198.697 191.524 200.314 189.548 201.98 187.512Z" fill="#34404A"/>
<path d="M46.16 31.824C47.777 31.824 49.394 31.824 51.06 31.824C50.0898 33.306 50.0898 33.306 49.1 34.818C45.5475 35.5041 45.5475 35.5041 42.24 35.816C42.5634 35.1573 42.8868 34.4986 43.22 33.82C44.1902 33.82 45.1604 33.82 46.16 33.82C46.16 33.1613 46.16 32.5026 46.16 31.824Z" fill="#35D06D"/>
</svg>
